<?xml version="1.0" ?><!DOCTYPE svg  PUBLIC '-//W3C//DTD SVG 1.1//EN'  'http://www.w3.org/Graphics/SVG/1.1/DTD/svg11.dtd'><svg enable-background="new 0 0 512 512" id="Layer_1" version="1.1" viewBox="0 0 512 512" xml:space="preserve" xmlns="http://www.w3.org/2000/svg" xmlns:xlink="http://www.w3.org/1999/xlink"><g><path d="M279,408.8c-13.3,0-26.3,0-39.7,0c-0.1,1.9-0.2,3.6-0.2,5.4c0,20.5-0.1,41,0,61.5c0,12.7-4.6,22.8-15.9,29.1   c-19,10.5-41.8-3.6-42.3-26.2c-0.4-17.8-0.1-35.7-0.1-53.5c0-5.3,0-10.6,0-16.5c-6.3,0-12.1-0.3-17.8,0.1   c-20.2,1.2-35.4-14.3-35.3-35.3c0.1-47.5,0-95,0-142.5c0-17.2,0.1-34.3-0.1-51.5c0-3.8,0.9-5.2,5-5.2c84.3,0.1,168.6,0.1,252.9,0   c3.6,0,4.9,0.9,4.9,4.7c-0.1,65.2-0.1,130.3-0.1,195.5c0,19.6-14.9,35.4-34.8,34.3c-5.8-0.3-11.6-0.1-17.9-0.1   c-0.1,2.1-0.3,3.9-0.3,5.7c0,20.7,0,41.3,0,62c0,12.9-5.1,23.1-16.8,29c-18.2,9.2-40.3-3.7-41.2-24.7c-0.9-21.8-0.3-43.6-0.4-65.5   C279,413,279,411.1,279,408.8z"/><path d="M390.1,162.4c-87.6,0-174.8,0-262.7,0c2.4-49.4,25.2-85.9,67.4-111.1C191,44,187.4,37,183.7,29.9   c-2.9-5.6-5.8-11.2-8.9-16.7c-1.5-2.7-2.1-5.2,0.9-6.9c2.9-1.6,4.4,0.5,5.7,3c6.1,11.7,12.3,23.2,18.5,34.9   c0.6,1.1,1.3,2.2,2.2,3.6c37.8-16.6,75.6-16.7,114,0.1c3-5.7,6.1-11.3,9.1-17c3.8-7.2,7.6-14.4,11.4-21.6c1.3-2.4,3-4.8,5.6-2.8   c1.3,1,1.8,4.7,1,6.3c-5.3,10.9-11.1,21.6-16.8,32.3c-1,1.9-2,3.8-3.2,6.3c30,17.1,50.8,41.8,61.4,74.5   C388.4,137.6,390.6,149.7,390.1,162.4z M330.9,100.5c0-6.7-4.7-11.6-11-11.8c-6.3-0.1-11.4,4.9-11.5,11.4   c-0.1,6.8,4.7,12.2,11.1,12.2C326.3,112.4,330.9,107.5,330.9,100.5z M198.5,112.3c6.4-0.1,11.1-5.2,11.1-12.2   c-0.1-6.5-5-11.5-11.3-11.4c-6.2,0-11,5.1-11.1,11.7C187.1,107.4,191.9,112.4,198.5,112.3z"/><path d="M460.2,264.9c0,21.5,0,43,0,64.5c0,12.4-5.6,21.9-16.5,27.6c-17.7,9.3-38.6-2.6-41.5-23.3c-0.3-2.3-0.4-4.6-0.4-7   c0-41.3,0-82.6,0-124c0-10.5,2.7-19.8,10.9-26.8c8.6-7.2,18.3-9.3,28.9-4.9c10.5,4.4,16.4,12.7,18.3,23.8c0.4,2.6,0.4,5.3,0.4,8   C460.3,223.6,460.3,244.3,460.2,264.9z"/><path d="M116.2,264.7c0,21,0,42,0,63c0,12.6-4.8,22.8-16,29c-18.4,10.1-41-3.2-42.3-24.8c-0.4-6.3-0.1-12.7-0.1-19   c0-37.5,0-75,0-112.5c0-13.5,7.4-25,18.6-29.4c18.1-7.1,38.8,5.6,39.4,25.1c0.7,22.8,0.2,45.6,0.2,68.5   C116,264.7,116.1,264.7,116.2,264.7z"/></g></svg>